<svg width="48" height="42" viewBox="0 0 48 42" fill="none" xmlns="http://www.w3.org/2000/svg">
<path fill-rule="evenodd" clip-rule="evenodd" d="M23.978 2.59912L4.43796 22.1392H9.08185L23.978 7.24301L38.9099 22.1392H43.5538L23.978 2.59912Z" fill="#151E2D"/>
<path fill-rule="evenodd" clip-rule="evenodd" d="M23.9781 0L48 23.9781H38.1508L23.9808 9.84201L9.84475 23.9781H0L23.9781 0Z" fill="#151E2D"/>
<path fill-rule="evenodd" clip-rule="evenodd" d="M14.0464 25.1055H8.29883V26.211C8.29883 34.8282 15.2905 41.8198 23.9076 41.8198C32.48 41.8198 39.4437 34.9006 39.5158 26.3452C39.5734 26.0946 39.531 25.866 39.4725 25.6904L39.2775 25.1055H33.7688V26.211C33.7688 31.6666 29.3311 36.0722 23.9076 36.0722C18.4859 36.0722 14.0464 31.6327 14.0464 26.211V25.1055Z" fill="#F59A00"/>
</svg>
